HIERARCHY
ROOT Hips
{
	OFFSET 0.000000 0.000000 0.000000
	CHANNELS 6 Xposition Yposition Zposition Xrotation Yrotation Zrotation
	JOINT LeftUpLeg_virtual
	{
		OFFSET 0.000000 0.000000 0.000000
		CHANNELS 3 Xrotation Yrotation Zrotation
		JOINT LeftUpLeg
		{
			OFFSET 13.026900 -6.336304 -1.092800
			CHANNELS 3 Xrotation Yrotation Zrotation
			JOINT LeftLeg
			{
				OFFSET 0.524474 -46.096886 9.782700
				CHANNELS 3 Xrotation Yrotation Zrotation
				JOINT LeftFoot
				{
					OFFSET -0.524474 -53.427422 -12.948200
					CHANNELS 3 Xrotation Yrotation Zrotation
					JOINT LeftToeBase
					{
						OFFSET 0.192200 -14.009700 16.364100
						CHANNELS 3 Xrotation Yrotation Zrotation
						JOINT LeftToe_End
						{
							OFFSET -1.784700 -0.561700 9.474800
							CHANNELS 3 Xrotation Yrotation Zrotation
							End Site
							{
								OFFSET 0 0 0
							}
						}
					}
				}
			}
		}
	}
	JOINT RightUpLeg_virtual
	{
		OFFSET 0.000000 0.000000 0.000000
		CHANNELS 3 Xrotation Yrotation Zrotation
		JOINT RightUpLeg
		{
			OFFSET -12.883000 -6.336304 -1.092800
			CHANNELS 3 Xrotation Yrotation Zrotation
			JOINT RightLeg
			{
				OFFSET -0.524587 -46.096825 9.782800
				CHANNELS 3 Xrotation Yrotation Zrotation
				JOINT RightFoot
				{
					OFFSET 0.524587 -53.427383 -12.948300
					CHANNELS 3 Xrotation Yrotation Zrotation
					JOINT RightToeBase
					{
						OFFSET -0.192200 -14.009700 16.364100
						CHANNELS 3 Xrotation Yrotation Zrotation
						JOINT RightToe_End
						{
							OFFSET 1.784700 -0.561700 9.474800
							CHANNELS 3 Xrotation Yrotation Zrotation
							End Site
							{
								OFFSET 0 0 0
							}
						}
					}
				}
			}
		}
	}
	JOINT Spine_virtual
	{
		OFFSET 0.000000 0.000000 0.000000
		CHANNELS 3 Xrotation Yrotation Zrotation
		JOINT Spine
		{
			OFFSET 0.072000 7.257294 -0.789700
			CHANNELS 3 Xrotation Yrotation Zrotation
			JOINT Spine1
			{
				OFFSET 0.000000 12.508769 -0.658067
				CHANNELS 3 Xrotation Yrotation Zrotation
				JOINT Spine1_split
				{
					OFFSET 0.000000 12.508769 -0.658067
					CHANNELS 3 Xrotation Yrotation Zrotation
					JOINT Spine2
					{
						OFFSET 0.000000 12.508769 -0.658067
						CHANNELS 3 Xrotation Yrotation Zrotation
						JOINT Neck_virtual
						{
							OFFSET 0.000000 0.000000 0.000000
							CHANNELS 3 Xrotation Yrotation Zrotation
							JOINT Neck
							{
								OFFSET 0.000000 14.033295 7.520400
								CHANNELS 3 Xrotation Yrotation Zrotation
								JOINT Head
								{
									OFFSET 0.000000 8.198502 5.703100
									CHANNELS 3 Xrotation Yrotation Zrotation
									JOINT HeadTop_End
									{
										OFFSET 0.000000 17.760803 13.332701
										CHANNELS 3 Xrotation Yrotation Zrotation
										End Site
										{
											OFFSET 0 0 0
										}
									}
								}
							}
						}
						JOINT LeftShoulder_virtual
						{
							OFFSET 0.000000 0.000000 0.000000
							CHANNELS 3 Xrotation Yrotation Zrotation
							JOINT LeftShoulder
							{
								OFFSET 6.292450 5.785301 -0.669000
								CHANNELS 3 Xrotation Yrotation Zrotation
								JOINT LeftShoulder_split
								{
									OFFSET 6.292450 5.785301 -0.669000
									CHANNELS 3 Xrotation Yrotation Zrotation
									JOINT LeftArm
									{
										OFFSET 13.907140 -6.093903 1.965100
										CHANNELS 3 Xrotation Yrotation Zrotation
										JOINT LeftForeArm
										{
											OFFSET 34.140198 0.000000 0.000000
											CHANNELS 3 Xrotation Yrotation Zrotation
											JOINT LeftHand
											{
												OFFSET 40.960209 0.000000 0.000000
												CHANNELS 3 Xrotation Yrotation Zrotation
												End Site
												{
													OFFSET 0 0 0
												}
											}
										}
									}
								}
							}
						}
						JOINT RightShoulder_virtual
						{
							OFFSET 0.000000 0.000000 0.000000
							CHANNELS 3 Xrotation Yrotation Zrotation
							JOINT RightShoulder
							{
								OFFSET -6.292450 5.785301 -0.669000
								CHANNELS 3 Xrotation Yrotation Zrotation
								JOINT RightShoulder_split
								{
									OFFSET -6.292450 5.785301 -0.669000
									CHANNELS 3 Xrotation Yrotation Zrotation
									JOINT RightArm
									{
										OFFSET -13.907140 -6.093903 1.965100
										CHANNELS 3 Xrotation Yrotation Zrotation
										JOINT RightForeArm
										{
											OFFSET -34.140198 0.000000 0.000000
											CHANNELS 3 Xrotation Yrotation Zrotation
											JOINT RightHand
											{
												OFFSET -40.960209 0.000000 0.000000
												CHANNELS 3 Xrotation Yrotation Zrotation
												End Site
												{
													OFFSET 0 0 0
												}
											}
										}
									}
								}
							}
						}
					}
				}
			}
		}
	}
}
MOTION
Frames: 9
Frame Time: 0.03333333
-1.786286 69.667351 12.687592 0.000000 0.000000 0.000000 33.200566 -56.722607 29.955629 -75.684807 -5.378026 24.032989 84.837909 -11.657339 1.065793 -17.542853 1.722360 -11.804993 -2.378383 -0.546104 1.091798 0.000000 0.000000 0.000000 35.920887 -60.079218 33.519809 -72.477234 -2.031399 -33.116138 83.525591 8.476251 0.386137 -26.057839 -3.588212 12.297312 0.185235 0.727434 -0.251190 0.000000 0.000000 0.000000 37.172423 -55.432463 31.401894 8.097754 -1.340496 -2.167279 4.180833 -2.973983 -2.703175 1.112170 0.629018 0.637517 0.000000 0.000000 0.000000 3.353757 -3.387362 -2.126278 -4.134664 14.563652 -7.022984 -34.260120 34.849941 4.678657 0.000000 0.000000 0.000000 3.524445 -3.407843 -2.450767 4.863668 -9.247058 -6.130647 -4.212122 -3.369887 0.711916 -59.416738 2.829543 -23.072924 20.141685 -22.318739 16.783851 0.000000 0.000000 0.000000 3.672982 -3.125549 -2.228584 5.768379 7.640673 13.535494 4.171193 4.209281 -0.744552 -10.129258 -3.374722 53.824169 -16.959203 40.368955 8.567743 0.000000 0.000000 0.000000 
-1.566059 65.128876 11.984795 0.000000 0.000000 0.000000 34.702265 -56.052224 30.945357 -80.292869 -9.457538 24.590440 89.587739 -13.072225 0.816618 -17.711416 1.786651 -12.798199 -2.572157 -0.525563 0.922401 0.000000 0.000000 0.000000 37.434443 -59.224290 34.459868 -77.624253 0.132685 -34.777872 88.316532 9.823399 0.439778 -25.928721 -3.147823 11.863257 0.365065 0.755229 -0.122672 0.000000 0.000000 0.000000 38.682582 -54.829832 32.306310 7.509569 -1.356655 -1.964428 4.415267 -2.769471 -2.633246 1.182028 0.439697 0.652485 0.000000 0.000000 0.000000 3.629407 -3.204831 -2.073499 -2.810796 15.174524 -8.124093 -34.688775 33.692903 4.015571 0.000000 0.000000 0.000000 3.770073 -3.228534 -2.438297 5.201829 -9.511522 -6.100962 -3.925189 -3.228213 0.949298 -60.837704 1.557403 -23.279899 21.148632 -21.926584 16.775119 0.000000 0.000000 0.000000 3.938489 -2.914903 -2.156419 6.147114 7.869754 13.852255 4.244190 4.254664 -0.903936 -9.842639 -1.761870 52.096957 -17.618292 42.057750 9.252311 0.000000 0.000000 0.000000 
-1.424729 60.777901 11.335983 0.000000 0.000000 0.000000 35.592471 -55.404159 31.292672 -84.452127 -13.478548 25.202689 93.792178 -14.675788 0.778412 -17.693491 1.667468 -13.861186 -2.838057 -0.471419 0.721787 0.000000 0.000000 0.000000 38.486620 -58.526935 34.866104 -82.611828 2.712966 -36.206700 92.794349 10.926737 0.810654 -25.068116 -3.152905 11.320738 0.501547 0.715413 -0.025117 0.000000 0.000000 0.000000 39.725394 -54.378811 32.780660 6.998623 -1.334784 -1.761754 4.635886 -2.522887 -2.554313 1.145233 0.198236 0.749711 0.000000 0.000000 0.000000 3.925411 -2.971224 -2.017118 -1.284842 15.740675 -9.216066 -34.610922 32.736776 3.206780 0.000000 0.000000 0.000000 4.033956 -3.004832 -2.421069 5.555853 -9.573469 -6.127892 -3.640332 -3.071599 1.090342 -62.019299 0.478550 -23.664001 22.265249 -21.543491 16.634612 0.000000 0.000000 0.000000 4.211774 -2.666400 -2.092348 6.549457 8.035962 14.191495 4.325369 4.250060 -0.987168 -9.285944 -0.314352 50.119785 -17.966746 43.115074 9.791730 0.000000 0.000000 0.000000 
-1.365777 56.828377 10.742729 0.000000 0.000000 0.000000 35.993762 -54.739547 31.150840 -88.132854 -17.273717 25.875060 97.319944 -16.331638 0.908384 -17.389189 1.361151 -14.920222 -3.098423 -0.400197 0.522248 0.000000 0.000000 0.000000 39.085283 -57.992370 34.876090 -87.287393 5.573839 -37.454090 96.888460 11.914753 1.384072 -23.341769 -3.522464 10.897985 0.274052 0.631242 0.032186 0.000000 0.000000 0.000000 40.467928 -54.027397 32.986897 6.543857 -1.275308 -1.585114 4.844931 -2.277958 -2.501843 0.936677 -0.167947 0.869243 0.000000 0.000000 0.000000 4.220166 -2.720073 -1.982096 0.396480 16.290529 -10.263125 -34.194734 31.902448 2.390971 0.000000 0.000000 0.000000 4.304002 -2.770402 -2.420241 5.928908 -9.415022 -6.189907 -3.337182 -2.928568 1.088944 -62.974959 -0.431315 -24.136430 23.500000 -21.111024 16.399709 0.000000 0.000000 0.000000 4.475520 -2.421988 -2.061705 6.975096 8.186164 14.651024 4.449586 4.208130 -0.974035 -8.622462 0.756320 48.026639 -17.947046 43.706083 10.152272 0.000000 0.000000 0.000000 
-1.447428 53.409634 10.298122 0.000000 0.000000 0.000000 36.044452 -53.984166 30.670975 -91.359832 -20.713080 26.540853 100.065475 -17.920412 1.142226 -16.754403 0.908192 -15.857116 -3.242555 -0.333322 0.340798 0.000000 0.000000 0.000000 39.282026 -57.472736 34.573123 -91.510943 8.620484 -38.473411 100.379527 12.947652 1.916190 -20.832700 -4.095502 10.914372 -0.459493 0.541005 0.029596 0.000000 0.000000 0.000000 40.929980 -53.701778 32.951384 6.118367 -1.193027 -1.442211 5.051657 -2.068259 -2.484111 0.793805 -0.600023 1.005466 0.000000 0.000000 0.000000 4.502153 -2.491993 -1.974702 2.151855 16.840654 -11.258637 -33.647578 31.122638 1.693096 0.000000 0.000000 0.000000 4.578737 -2.557526 -2.432729 6.335516 -9.072440 -6.276024 -3.016956 -2.849637 0.909280 -63.673421 -1.239676 -24.661750 24.890603 -20.758427 16.187617 0.000000 0.000000 0.000000 4.736949 -2.218529 -2.079953 7.419059 8.382342 15.290403 4.603168 4.181222 -0.925965 -8.006832 1.402863 45.828879 -17.557169 44.043102 10.340213 0.000000 0.000000 0.000000 
-1.670774 50.658413 9.943230 0.000000 0.000000 0.000000 35.966758 -53.185577 30.099701 -94.130874 -23.685569 27.115716 101.979212 -19.341766 1.421459 -15.798060 0.340160 -16.716891 -3.319153 -0.280596 0.212648 0.000000 0.000000 0.000000 39.203688 -56.928903 34.081445 -95.139228 11.673487 -39.207229 103.187650 14.061976 2.268868 -17.951393 -4.705873 11.438420 -1.559236 0.469217 -0.001647 0.000000 0.000000 0.000000 41.313929 -53.413186 32.857260 5.726504 -1.109223 -1.320261 5.272536 -1.923343 -2.492176 0.735543 -1.001563 1.142844 0.000000 0.000000 0.000000 4.776438 -2.315627 -1.987752 3.904926 17.422221 -12.215395 -33.156563 30.438752 1.171513 0.000000 0.000000 0.000000 4.871072 -2.391026 -2.450563 6.774090 -8.581815 -6.389137 -2.712085 -2.912199 0.651926 -64.182079 -1.944958 -25.210232 26.465796 -20.583439 16.095423 0.000000 0.000000 0.000000 5.012361 -2.078147 -2.130108 7.868828 8.698996 16.122235 4.707584 4.174476 -0.902235 -7.491171 1.746758 43.522235 -16.804562 44.215752 10.330689 0.000000 0.000000 0.000000 
-1.995767 48.576427 9.721218 0.000000 0.000000 0.000000 35.780608 -52.321387 29.484851 -96.529178 -26.098168 27.484005 103.101992 -20.569939 1.704498 -14.512627 -0.279417 -17.549150 -3.416008 -0.238878 0.138319 0.000000 0.000000 0.000000 38.860802 -56.183435 33.379411 -98.073996 14.506956 -39.732556 105.330806 15.184877 2.401612 -15.067863 -5.205227 12.270359 -2.842299 0.450984 -0.026733 0.000000 0.000000 0.000000 41.727675 -53.122749 32.781025 5.334989 -1.046525 -1.193136 5.529152 -1.836359 -2.503310 0.793819 -1.277483 1.162194 0.000000 0.000000 0.000000 5.051383 -2.200468 -2.003658 5.541626 18.025402 -13.135546 -32.868253 29.891012 0.859867 0.000000 0.000000 0.000000 5.175569 -2.277005 -2.458117 7.230670 -8.017311 -6.552923 -2.528981 -2.997554 0.357692 -64.645487 -2.619111 -25.780400 28.220057 -20.604512 16.177236 0.000000 0.000000 0.000000 5.302872 -1.999956 -2.180227 8.304135 9.184070 17.100598 4.752871 4.219325 -0.944986 -7.042273 1.939276 41.145582 -15.730453 44.231441 10.091596 0.000000 0.000000 0.000000 
-2.335638 47.107334 9.612854 0.000000 0.000000 0.000000 35.487330 -51.429057 28.869533 -98.662451 -27.878590 27.547164 103.557429 -21.617171 2.018471 -13.015487 -0.903466 -18.357168 -3.589184 -0.200282 0.089067 0.000000 0.000000 0.000000 38.403661 -55.248553 32.599544 -100.406827 16.952687 -40.091827 106.935108 16.210824 2.356412 -12.516946 -5.622388 13.203655 -4.098514 0.467164 0.004932 0.000000 0.000000 0.000000 42.189583 -52.831278 32.773426 4.968097 -1.032556 -1.047292 5.836794 -1.785089 -2.491637 0.907875 -1.329501 1.098160 0.000000 0.000000 0.000000 5.340101 -2.135211 -2.000520 6.953386 18.619403 -14.037691 -32.808998 29.471611 0.744749 0.000000 0.000000 0.000000 5.495279 -2.203718 -2.435010 7.688159 -7.392987 -6.765548 -2.444940 -2.962284 0.103802 -65.059464 -3.329762 -26.374116 30.090825 -20.850215 16.461914 0.000000 0.000000 0.000000 5.610684 -1.958503 -2.201262 8.696086 9.845096 18.118648 4.705209 4.285875 -1.044660 -6.493284 2.137186 38.668771 -14.384016 43.892387 9.591129 0.000000 0.000000 0.000000 
-2.654397 46.144821 9.528336 0.000000 0.000000 0.000000 35.177701 -50.563003 28.351871 -100.571004 -29.075285 27.285673 103.569942 -22.426982 2.314041 -11.515237 -1.416028 -19.012752 -3.755447 -0.162701 0.011440 0.000000 0.000000 0.000000 37.957875 -54.192162 31.897728 -102.184459 18.843718 -40.400907 108.100304 17.052044 2.209010 -10.490946 -6.006721 14.159702 -5.387711 0.490162 0.113613 0.000000 0.000000 0.000000 42.605658 -52.532248 32.806218 4.652255 -1.076903 -0.880825 6.203914 -1.751445 -2.444887 0.916377 -1.163610 0.942718 0.000000 0.000000 0.000000 5.659325 -2.097533 -1.970133 8.065309 19.164633 -14.893490 -32.957845 29.169211 0.778576 0.000000 0.000000 0.000000 5.838001 -2.152680 -2.381467 8.113477 -6.768040 -7.019880 -2.477629 -2.800603 -0.102419 -65.454140 -4.121538 -27.004295 31.947086 -21.115979 16.874180 0.000000 0.000000 0.000000 5.929764 -1.925741 -2.169960 9.012400 10.654551 19.102625 4.751840 4.364302 -1.227986 -5.782873 2.396881 36.233826 -12.925938 43.050242 8.899246 0.000000 0.000000 0.000000 
